<svg aria-hidden="true" style="position:absolute;width:0;height:0" xmlns="http://www.w3.org/2000/svg" overflow="hidden">
<defs>
<symbol id="icon-arrow-right" viewBox="0 0 32 32">
<path d="M15.057 7.609l7.057 7.057H6.666a1.333 1.333 0 000 2.666h15.448l-7.057 7.057a1.333 1.333 0 001.886 1.886l9.333-9.333c.239-.242.387-.575.387-.943s-.148-.701-.387-.943l-9.333-9.333a1.333 1.333 0 00-1.886 1.886z"/></symbol><symbol id="icon-arrow-right2" viewBox="0 0 32 32"><path d="M19.414 27.414l10-10c.362-.362.586-.862.586-1.414s-.224-1.052-.586-1.414l-10-10a2 2 0 10-2.829 2.827l.001.001L23.172 14H4a2 2 0 100 4h19.172l-6.586 6.586c-.39.39-.586.902-.586 1.414s.195 1.024.586 1.414c.362.362.862.586 1.414.586s1.052-.224 1.414-.586z"/></symbol><symbol id="icon-facebook" viewBox="0 0 16 32"><path d="M14.143 15.971H10.11v14.865H3.998V15.971H1.092v-5.222h2.906V7.367c0-2.417 1.142-6.204 6.167-6.204l4.527.019v5.072h-3.284c-.538 0-1.297.272-1.297 1.425v3.073h4.567l-.534 5.219z"/></symbol><symbol id="icon-further" viewBox="0 0 19 32"><path fill="none" stroke="var(--color2, #d41443)" stroke-linejoin="round" stroke-linecap="round" stroke-width="6.4" d="M3.2 3.2L16 16 3.2 28.8"/></symbol><symbol id="icon-githab" viewBox="0 0 32 32"><path d="M16 0C7.211 0 0 7.211 0 16c0 7.499 5.262 14.312 12.25 16v-5.293a3.921 3.921 0 01-2.062-.06l.028.007c-.946-.278-1.714-.909-2.285-1.869-.363-.613-1.008-1.28-1.68-1.23l-.165-1.867c1.454-.125 2.71.886 3.456 2.139.333.558.715.885 1.205 1.029.472.141.981.074 1.573-.136.149-1.186.693-1.629 1.104-2.256-4.168-.621-5.829-2.832-6.488-4.576-.874-2.318-.405-5.213 1.139-7.043.03-.035.085-.128.064-.192-.709-2.141.154-3.91.186-4.098.818.24.95-.243 3.552 1.336l.448.27c.189.112.128.048.317.032a13.246 13.246 0 013.349-.469h.01c1.136.014 2.272.176 3.403.483l.146.016c-.013-.003.04-.01.128-.062 3.248-1.968 3.131-1.325 4.003-1.608.032.189.882 1.987.182 4.099-.096.291 2.816 2.957 1.202 7.235-.659 1.744-2.32 3.957-6.486 4.578.534.816 1.176 1.248 1.173 2.928v6.606c6.986-1.688 12.25-8.501 12.25-16 0-8.789-7.211-16-16-16z"/></symbol><symbol id="icon-home" viewBox="0 0 35 32"><path d="M34.253 15.613a1.571 1.571 0 00-.129-2.254l-.002-.002L19.349.432A1.828 1.828 0 0018.165 0c-.467 0-.893.174-1.217.46l.002-.002L2.129 14.047a1.564 1.564 0 00-.071 2.251l.373.387c.613.64 1.611.72 2.224.171l1.107-.992v14.523c0 .893.72 1.613 1.613 1.613h5.773c.891 0 1.613-.72 1.613-1.613v-10.16h7.373v10.16c-.013.891.624 1.613 1.515 1.613h6.123a1.61 1.61 0 001.611-1.613v-14.32l.685.603c.376.331 1.168.064 1.765-.595l.421-.461z"/></symbol><symbol id="icon-menu" viewBox="0 0 46 32"><path fill="none" stroke="var(--color2, #d41443)" stroke-width="2.286" d="M0 2.286h45.714M0 16h45.714M0 29.714h45.714"/></symbol><symbol id="icon-menu-close" viewBox="0 0 32 32"><path fill="none" stroke="var(--color1, #fff)" stroke-width="2" d="M2.52 2l26.96 28M2 29.48L30 2.52"/></symbol><symbol id="icon-quotes" viewBox="0 0 43 32"><path d="M32.014 0c1.928 0 3.75.52 5.464 1.561s3.107 2.537 4.178 4.488c1.029 1.951 1.543 4.25 1.543 6.894s-.643 5.225-1.928 7.74c-.429.91-1.2 2.081-2.315 3.512a63.65 63.65 0 01-3.214 3.707L31.692 32l-2.893-4.813a22.225 22.225 0 005.306-4.646l.03-.037c1.542-1.821 2.314-3.49 2.314-5.008 0-.781-.171-1.41-.514-1.886a8.361 8.361 0 01-5.014 1.626c-1.328 0-2.593-.412-3.793-1.236a8.638 8.638 0 01-2.935-3.078l-.022-.043c-.771-1.258-1.157-2.558-1.157-3.902 0-1.518.45-2.97 1.35-4.358a10.313 10.313 0 013.364-3.356l.044-.025C29.142.414 30.556.002 32.014.002zM8.936 0c1.928 0 3.75.52 5.464 1.561s3.107 2.536 4.178 4.488c1.029 1.951 1.543 4.25 1.543 6.894 0 1.864-.236 3.534-.707 5.008-.472 1.518-1.286 3.1-2.443 4.748-1.114 1.561-2.164 2.862-3.15 3.902-.986 1.084-2.7 2.883-5.143 5.398l-2.893-4.813a22.225 22.225 0 005.306-4.646l.03-.037c1.542-1.821 2.314-3.49 2.314-5.008 0-.781-.172-1.41-.514-1.886a8.361 8.361 0 01-5.014 1.626c-1.328 0-2.593-.412-3.793-1.236a8.638 8.638 0 01-2.935-3.078l-.022-.043C.386 11.62 0 10.32 0 8.976c0-1.518.429-2.97 1.286-4.358A10.313 10.313 0 014.65 1.262l.045-.025C6.065.413 7.479.001 8.937.001z"/></symbol><symbol id="icon-telegram" viewBox="0 0 44 32"><path d="M17.342 21.048l-.674 8.86c.966 0 1.384-.388 1.886-.852l4.526-4.04 9.38 6.414c1.72.894 2.934.422 3.4-1.478L42.016 3.02c.548-2.374-.92-3.302-2.594-2.72L3.228 13.234c-2.47.896-2.434 2.18-.42 2.766l9.252 2.684L33.554 6.132c1.012-.626 1.932-.28 1.176.346l-17.39 14.57z"/>
</symbol>
<symbol id="icon-telegram" viewBox="0 0 44 32">
<path d="M17.343 21.048l-0.675 8.86c0.966 0 1.384-0.387 1.885-0.852l4.527-4.038 9.381 6.412c1.72 0.895 2.933 0.424 3.397-1.477l6.159-26.93c0.546-2.374-0.92-3.302-2.596-2.72l-36.194 12.933c-2.47 0.895-2.433 2.18-0.42 2.762l9.253 2.686 21.494-12.552c1.012-0.625 1.931-0.279 1.175 0.346l-17.386 14.57z"></path>
</symbol>
<symbol id="icon-github" viewBox="0 0 32 32">
<path d="M16 0c-8.788 0-16 7.212-16 16 0 7.499 5.262 14.312 12.25 16v-5.293c-0.692 0.152-1.33 0.156-2.034-0.052-0.946-0.279-1.714-0.909-2.284-1.869-0.364-0.613-1.008-1.278-1.68-1.23l-0.165-1.868c1.453-0.124 2.711 0.886 3.457 2.14 0.332 0.558 0.713 0.884 1.203 1.029 0.473 0.14 0.982 0.072 1.574-0.137 0.149-1.186 0.692-1.63 1.102-2.255v-0.001c-4.167-0.622-5.828-2.832-6.488-4.578-0.874-2.317-0.405-5.212 1.14-7.041 0.030-0.036 0.084-0.129 0.063-0.194-0.708-2.139 0.155-3.909 0.187-4.097 0.817 0.242 0.95-0.243 3.551 1.337l0.449 0.27c0.188 0.112 0.129 0.048 0.317 0.034 1.086-0.295 2.23-0.458 3.358-0.472 1.136 0.015 2.273 0.178 3.404 0.484l0.145 0.015c-0.013-0.002 0.040-0.009 0.127-0.062 3.248-1.968 3.132-1.324 4.003-1.608 0.032 0.188 0.883 1.987 0.182 4.099-0.095 0.291 2.816 2.956 1.203 7.235-0.659 1.746-2.32 3.957-6.487 4.578v0.001c0.534 0.814 1.176 1.247 1.173 2.927v6.608c6.988-1.688 12.25-8.501 12.25-16 0-8.788-7.212-16-16-16v0z"></path>
</symbol>
<symbol id="icon-facebook" viewBox="0 0 16 32">
<path d="M14.143 15.972h-4.034v14.865h-6.112v-14.865h-2.907v-5.224h2.907v-3.381c0-2.418 1.142-6.203 6.166-6.203l4.527 0.019v5.071h-3.285c-0.539 0-1.296 0.271-1.296 1.424v3.075h4.567l-0.534 5.219z"></path>
</symbol>
<symbol id="icon-direction" viewBox="0 0 20 20">
<path d="M12.95 10.707l0.707-0.707-5.657-5.657-1.414 1.414 4.242 4.243-4.242 4.243 1.414 1.414 4.95-4.95z"></path>
</symbol>
<symbol id="icon-close" viewBox="0 0 32 32">
<path d="M3.738 0l26.929 26.929-3.738 3.738-26.929-26.929z"></path>
<path d="M1.156 27.21l26.929-26.929 3.738 3.738-26.929 26.929z"></path>
</symbol>

<symbol id="right-arrow" viewBox="0 0 32 32">
<path d="M31.489 14.757l-11.556-11.557c-0.33-0.33-0.77-0.511-1.238-0.511s-0.909 0.181-1.239 0.511l-1.049 1.050c-0.33 0.329-0.511 0.769-0.511 1.238s0.182 0.924 0.511 1.253l6.742 6.757h-21.419c-0.966 0-1.729 0.756-1.729 1.722v1.484c0 0.966 0.763 1.798 1.729 1.798h21.495l-6.818 6.794c-0.33 0.33-0.511 0.758-0.511 1.227s0.182 0.903 0.511 1.232l1.049 1.046c0.33 0.33 0.769 0.51 1.239 0.51s0.908-0.182 1.238-0.512l11.556-11.556c0.331-0.331 0.513-0.773 0.511-1.242 0.001-0.471-0.181-0.913-0.511-1.244z"></path>
</symbol>

<symbol id="icon-rigth" viewBox="0 0 26 32">
<path stroke-linejoin="round" stroke-linecap="round" stroke-miterlimit="4" stroke-width="6.4" d="M5.173 3.2l14.169 12.8-14.169 12.8"></path>
</symbol>


<symbol id="icon-modal-close" viewBox="0 0 32 32">
<path d="M23.733 10.304l-1.504-1.504-5.963 5.963-5.963-5.963-1.504 1.504 5.963 5.963-5.963 5.963 1.504 1.504 5.963-5.963 5.963 5.963 1.504-1.504-5.963-5.963 5.963-5.963z"></path>
</symbol>

</defs>
</svg>