<svg aria-hidden="true" style="position:absolute;width:0;height:0" xmlns="http://www.w3.org/2000/svg" overflow="hidden">
<defs>

<!-- Header -->
<symbol id="icon-milk-tank" viewBox="0 0 32 32">
<path d="M20.243 14.757c-2.373-2.373-6.188-2.298-8.486 0a5.971 5.971 0 00-1.76 4.241c0 .821.165 1.603.464 2.315l-.015-.039c.241.59 1.169.215.926-.378a4.914 4.914 0 01-.374-1.895c0-1.461.627-2.775 1.627-3.688l.004-.003c.213.515.471.96.781 1.363l-.01-.014-.983 1.416c-1.025 1.439 1.297 3.436 2.48 1.688.979-1.41.685-.984.742-1.069a.347.347 0 01.625.14v.002l.329 1.824c.276 1.827 3.331 1.359 2.953-.528l-.25-1.385a5.99 5.99 0 001.645-.677l-.027.015a4.99 4.99 0 01-2.285 5.171l-.021.012c-.583.356-.023 1.185.521.854 3.343-2.039 3.825-6.652 1.115-9.364zm-1.933 3.3a.498.498 0 00-.087.385v-.003c.278 1.828.497 2.044.217 2.282-.252.214-.787.216-.863-.235l-.329-1.824c-.203-1.194-1.781-1.499-2.437-.531-.66.879-.796 1.342-1.138 1.313-.317-.027-.661-.481-.438-.796l1.201-1.73a.5.5 0 00-.037-.617 4.891 4.891 0 01-.924-1.576l-.011-.034c2.61-1.534 5.998-.408 7.155 2.398-1.344.899-2.028.579-2.309.969z"/>
<path d="M12.581 21.227c-.162.248-1.581 2.456-1.581 3.607 0 2.884 4 2.894 4 0 0-1.151-1.419-3.359-1.581-3.607a.502.502 0 00-.837-.002l-.001.002zM12 24.833c0-.495.513-1.539 1-2.378.487.838 1 1.881 1 2.378 0 1.564-2 1.564-2 0z"/>
<path d="M25.93 8.134c-1.045-.433-1.722.267-3.168.772L21 5.382V3c.344-.031.669.096.894-.192a.497.497 0 00.09-.433l.001.003a3.142 3.142 0 00-3.043-2.379H13.057a3.137 3.137 0 00-3.038 2.357l-.005.022a.5.5 0 00.485.621h.5v2.382L9.237 8.905c-1.444-.504-2.123-1.206-3.168-.772-1.512.627-1.381 2.806.194 3.25L8 11.877v16.122a.5.5 0 00-.5.5v3a.5.5 0 00.5.5h16a.5.5 0 00.5-.5v-3a.5.5 0 00-.5-.5V11.877c1.237-.454 2.31-.348 2.825-1.399a1.719 1.719 0 00-.883-2.34l-.011-.004zM13.062 1h5.88c.759 0 1.425.395 1.804.991l.005.009H11.25c.384-.605 1.051-1 1.81-1h.002zm-6.526 9.421a.722.722 0 01-.088-1.362l.005-.002c.487-.202.754.139 2.337.745l-.552 1.103zM23.5 31h-15v-2H18a.5.5 0 000-1H9V12h1.5a.5.5 0 000-1H9.309l2.5-5h.691a.5.5 0 000-1H12V3h8v2h-3.5a.5.5 0 000 1h3.691l2.5 5H14.5a.5.5 0 000 1H23v16h-1a.5.5 0 000 1h1.5zm1.963-20.578l-1.701.484-.552-1.103c1.626-.622 1.853-.946 2.337-.745a.722.722 0 01-.08 1.363l-.005.001z"/>
<path d="M15 5.5a.5.5 0 11-1 0 .5.5 0 011 0zM13 11.5a.5.5 0 11-1 0 .5.5 0 011 0zM20.5 28.5a.5.5 0 11-1 0 .5.5 0 011 0zM17 24.5a.5.5 0 11-1 0 .5.5 0 011 0z"/>
</symbol>

<symbol id="icon-apple-juice" viewBox="0 0 32 32">
<path d="M31.679 2.51a.534.534 0 000-.754l-1.6-1.6a.534.534 0 00-.754 0l-4.8 4.8c-.1.1-.156.236-.156.377V8H14.236a.534.534 0 00-.534.57l.445 6.363h-.407a3.204 3.204 0 00-2.316 1.013c-.252.26-.571.446-.922.537v-1.06a3.737 3.737 0 003.2-3.691v-1.067a.533.533 0 00-.533-.533 3.725 3.725 0 00-2.898 1.387 3.736 3.736 0 00-3.502-2.453.533.533 0 00-.533.533v1.067a3.738 3.738 0 003.2 3.691v2.116a2.011 2.011 0 01-.885-.514l-.132-.131a3.217 3.217 0 00-2.369-.949l-.544.012a5.372 5.372 0 00-3.693 1.578 5.624 5.624 0 00-1.261 6.027l2.742 7.007a3.904 3.904 0 003.658 2.496 2.648 2.648 0 001.886-.781 1.636 1.636 0 012.262 0 2.647 2.647 0 001.885.781 3.91 3.91 0 002.3-.747l.017.251c.02.28.253.497.533.496h12.8a.532.532 0 00.533-.496l1.6-22.933a.532.532 0 00-.495-.569L30.234 8h-2.667V6.621l4.11-4.11zM10.502 13.867a2.67 2.67 0 012.133-2.613v.48a2.67 2.67 0 01-2.133 2.613v-.48zm-3.2-3.2v-.48A2.67 2.67 0 019.435 12.8v.48a2.67 2.67 0 01-2.133-2.613zm8.347 18.448a2.841 2.841 0 01-2.663 1.818 1.61 1.61 0 01-1.131-.468 2.667 2.667 0 00-3.771 0c-.3.301-.707.469-1.132.468a2.84 2.84 0 01-2.663-1.818l-2.742-7.009a4.559 4.559 0 011.021-4.884 4.305 4.305 0 012.963-1.266l.546-.01a2.24 2.24 0 011.591.64l.132.131a3.027 3.027 0 002.221.91 3.07 3.07 0 002.213-.981 2.103 2.103 0 011.508-.647h.679a4.148 4.148 0 012.951 1.222 4.56 4.56 0 011.022 4.884l-2.743 7.009zm8.72 1.818h-8.036l-.052-.739c.143-.218.264-.449.362-.69l2.742-7.009a5.626 5.626 0 00-1.261-6.027A5.19 5.19 0 0015.221 15l-.042-.601h9.189v16.533zm0-17.6h-9.264l-.298-4.267h9.562v4.267zm2.133 17.6h-1.067V14.4h1.067v16.533zm0-17.6h-1.067V9.066h1.067v4.267zm1.636 17.6h-.569V14.4h1.723l-1.154 16.533zm1.526-21.866l-.298 4.267h-1.797V9.067h2.095zm-3.006-3.044c-.1.1-.156.236-.156.377V8h-1.067V5.554l4.267-4.267.846.846-3.89 3.89z"/>
</symbol>

<symbol id="icon-ice-cream-logo" viewBox="0 0 32 32">
<path d="M25.833 15.8h-.004a.625.625 0 11.004 0zM24.788 13.077a.62.62 0 01-.441-.183l-.002-.002a.625.625 0 11.443.185z"/>
<path d="M29.982 16.961h-.384a8.313 8.313 0 00-4.355-8.417l.222-.072c1.799-.58 3.498-1.128 4.569-1.745a3.438 3.438 0 001.265-4.689c-.456-.792-1.196-1.361-2.084-1.599S27.402.32 26.61.775c-1.078.619-2.413 1.82-3.825 3.091l-.014.013A8.307 8.307 0 0015.747 0c-4.544 0-8.248 3.67-8.303 8.201-3.023 1.243-5.157 4.219-5.157 7.685 0 .36.024.72.07 1.076h-.342a2.018 2.018 0 00-2.016 2.016c0 1.11.904 2.015 2.015 2.017h.591l3.044 10.553A.625.625 0 006.25 32h6.941a.625.625 0 000-1.25H6.72L5.032 24.9A3.577 3.577 0 008.726 21l7.331.005v3.627c0 1.124.915 2.039 2.039 2.039s2.039-.915 2.039-2.039v-3.727a.79.79 0 011.578 0v1.125c0 1.124.915 2.039 2.039 2.039s2.039-.915 2.039-2.039v-1.035h2.298l-1.98 6.862a3.692 3.692 0 00-6.18 2.893h-1.125a.625.625 0 000 1.25h6.941a.626.626 0 00.601-.452l3.044-10.553h.591a2.018 2.018 0 000-4.034zM25.276 30.75h-4.094a2.441 2.441 0 012.431-2.614c.862 0 1.639.443 2.08 1.169zM23.622 4.796c1.362-1.226 2.649-2.383 3.613-2.937.503-.289 1.092-.365 1.657-.213s1.036.513 1.325 1.016c.6 1.044.24 2.381-.805 2.982-.957.551-2.595 1.08-4.329 1.639l-1.058.343a8.241 8.241 0 00-.651-2.608l.248-.223zM15.748 1.25c3.687 0 6.721 2.843 7.029 6.451a8.267 8.267 0 00-6.796 1.865 8.25 8.25 0 00-5.388-1.986c-.647 0-1.276.074-1.881.215.262-3.653 3.318-6.546 7.036-6.546zm-5.156 7.581c1.658 0 3.233.572 4.497 1.62a8.273 8.273 0 00-1.96 6.511H3.62a7.063 7.063 0 016.972-8.131zM5.171 23.653c-.174 0-.346-.019-.513-.057l-.75-2.6 3.562.003a2.326 2.326 0 01-2.299 2.654zm10.889-3.898l-14.042-.01a.767.767 0 01-.001-1.533H15.474c.324 0 .587.263.587.587v.957zm8.482-.957v3.231a.79.79 0 01-1.578 0v-1.125c0-1.124-.915-2.039-2.039-2.039s-2.039.915-2.039 2.039v3.727a.79.79 0 01-1.578 0v-5.834a1.839 1.839 0 00-1.837-1.837h-1.082a7.063 7.063 0 016.972-8.131 7.063 7.063 0 016.972 8.131h-1.957a1.839 1.839 0 00-1.837 1.837zm5.44.947h-4.19v-.946c0-.324.263-.587.587-.587H29.982a.767.767 0 110 1.534z"/><path d="M9.069 26.395a2.723 2.723 0 002.721 2.719c1.499 0 2.719-1.22 2.719-2.719s-1.22-2.721-2.719-2.721a2.725 2.725 0 00-2.721 2.721zm4.19 0a1.47 1.47 0 01-2.94 0c0-.81.66-1.471 1.471-1.471.81 0 1.469.66 1.469 1.471zM5.804 15.671h.004c.345 0 .623-.28.623-.625a.627.627 0 00-1.252 0c0 .345.28.625.625.625zM8.194 13.285h.004c.345 0 .623-.28.623-.625a.627.627 0 00-1.252 0c0 .345.28.625.625.625zM7.898 15.117c0 .345.28.625.625.625h.004c.345 0 .623-.28.623-.625a.627.627 0 00-1.252 0zM14.314 5.56h.004c.345 0 .623-.28.623-.625a.627.627 0 00-1.252 0c0 .345.28.625.625.625zM17.879 5.934h.004c.345 0 .623-.28.623-.625a.627.627 0 00-1.252 0c0 .345.28.625.625.625zM16.332 4.083h.004c.345 0 .623-.28.623-.625a.627.627 0 00-1.252 0c0 .345.28.625.625.625zM21.542 12.585a.625.625 0 00-.625.625v1.265a.66.66 0 11-1.32 0V13.21a.625.625 0 00-1.25 0v1.265c0 1.054.857 1.911 1.909 1.911s1.911-.857 1.911-1.911V13.21a.625.625 0 00-.625-.625zM15.999 30.75a.625.625 0 000 1.25h.004c.345 0 .623-.28.623-.625s-.282-.625-.627-.625z"/>
</symbol>

<symbol id="icon-ice-cream" viewBox="0 0 32 32">
<path d="M24.692 12.537c0-2.364-1.64-4.35-3.842-4.885.21-.604.317-1.237.317-1.889a5.74 5.74 0 00-.356-1.999A5.812 5.812 0 0018.545.93a.47.47 0 00-.512.786 4.873 4.873 0 011.61 1.742h-1.871c-.618 0-1.12.503-1.12 1.12v.217a.274.274 0 01-.548 0V3.68a1.17 1.17 0 00-2.338 0v2.522a.183.183 0 01-.366 0V4.578c0-.618-.503-1.12-1.12-1.12h-1.115a4.85 4.85 0 015.198-2.426.469.469 0 00.186-.918A5.802 5.802 0 0015.405 0a5.785 5.785 0 00-5.406 3.764 5.787 5.787 0 00.107 4.265 5.033 5.033 0 00-2.508 2.794.47.47 0 00.882.32 4.103 4.103 0 013.846-2.695c1.185 0 2.318.523 3.09 1.412a5 5 0 00.001 5.355 4.107 4.107 0 01-3.091 1.413 4.097 4.097 0 01-4.08-3.814.469.469 0 00-.936.062 5.038 5.038 0 003.16 4.332l.008.03 4.92 14.446a.47.47 0 00.888 0l4.077-11.973a1.487 1.487 0 002.901-.45v-3.212a5.049 5.049 0 001.431-3.511zM12.324 7.51c-.461 0-.912.064-1.342.184a4.838 4.838 0 01-.205-3.298h1.503c.101 0 .183.082.183.183v1.624c0 .618.503 1.12 1.12 1.12s1.12-.503 1.12-1.12V3.681a.231.231 0 01.462 0v1.115c0 .668.544 1.212 1.212 1.212s1.212-.544 1.212-1.212v-.217c0-.101.082-.183.183-.183h2.26c.13.441.197.899.197 1.367 0 .608-.111 1.196-.328 1.753a5.016 5.016 0 00-3.905 1.589 5.05 5.05 0 00-3.673-1.595zm3.672 8.459c.26.28.554.531.877.747v.269c0 .891.725 1.616 1.616 1.616a1.62 1.62 0 001.514-1.049l.105-.008-.676 1.984-5.344-2.287a5.066 5.066 0 001.908-1.272zm-3.672 1.595l.129-.002 6.675 2.857-.669 1.965-3.17-1.335a.47.47 0 00-.364.864l3.231 1.36-.684 2.009-3.813-1.605-.913-2.681.357.15a.466.466 0 00.614-.25.47.47 0 00-.25-.614l-1.125-.474-.784-2.304c.25.039.506.059.766.059zm4.162 10.616l-1.508-.635-.913-2.681 3.105 1.308-.684 2.009zm-.646 1.897l-.458-1.345.801.337-.343 1.007zm6.953-17.244a.469.469 0 00-.469.469v5.958a.549.549 0 01-1.096 0v-2.3a1.031 1.031 0 00-2.06 0v.024c0 .374-.305.679-.679.679s-.679-.305-.679-.679v-2.2a.469.469 0 00-.938 0v.737a4.108 4.108 0 01-1.297-2.985c0-2.255 1.835-4.089 4.089-4.089a4.095 4.095 0 013.596 6.041v-1.187a.469.469 0 00-.469-.469z"/>
<path d="M21.243 10.546h-.085a.469.469 0 000 .938h.085a.469.469 0 000-.938zM22.18 11.882h-.085a.469.469 0 000 .938h.085a.469.469 0 000-.938zM11.005 15.181a.469.469 0 000-.938h-.085a.469.469 0 000 .938h.085z"/></symbol></defs></svg>
</symbol>

<symbol id="bracket2" viewBox="0 0 32 32">
<path d="M24.889 14.751l-14.24-14.24c-0.329-0.33-0.769-0.511-1.238-0.511s-0.908 0.182-1.238 0.511l-1.049 1.048c-0.682 0.683-0.682 1.794 0 2.476l11.958 11.958-11.971 11.971c-0.329 0.33-0.511 0.769-0.511 1.238s0.182 0.908 0.511 1.238l1.049 1.048c0.33 0.33 0.769 0.511 1.238 0.511s0.908-0.182 1.238-0.511l14.254-14.253c0.33-0.331 0.511-0.772 0.51-1.242 0.001-0.471-0.18-0.912-0.51-1.243z"></path>
</symbol>

<symbol id="right-arrow" viewBox="0 0 32 32">
<path d="M31.489 14.757l-11.556-11.557c-0.33-0.33-0.77-0.511-1.238-0.511s-0.909 0.181-1.239 0.511l-1.049 1.050c-0.33 0.329-0.511 0.769-0.511 1.238s0.182 0.924 0.511 1.253l6.742 6.757h-21.419c-0.966 0-1.729 0.756-1.729 1.722v1.484c0 0.966 0.763 1.798 1.729 1.798h21.495l-6.818 6.794c-0.33 0.33-0.511 0.758-0.511 1.227s0.182 0.903 0.511 1.232l1.049 1.046c0.33 0.33 0.769 0.51 1.239 0.51s0.908-0.182 1.238-0.512l11.556-11.556c0.331-0.331 0.513-0.773 0.511-1.242 0.001-0.471-0.181-0.913-0.511-1.244z"></path>
</symbol>

<symbol id="icon-puntos" viewBox="0 0 133 32">
<path d="M81.515 16c0 8.837-6.843 16-15.285 16s-15.285-7.163-15.285-16c0-8.837 6.843-16 15.285-16s15.285 7.163 15.285 16z"></path>
<path d="M30.571 16c0 8.837-6.843 16-15.285 16s-15.285-7.163-15.285-16c0-8.837 6.843-16 15.285-16s15.285 7.163 15.285 16z"></path>
<path d="M132.459 16c0 8.837-6.843 16-15.285 16s-15.285-7.163-15.285-16c0-8.837 6.843-16 15.285-16s15.285 7.163 15.285 16z"></path>
</symbol>
<symbol id="icon-arrow-right2" viewBox="0 0 32 32">
<path d="M19.414 27.414l10-10c0.781-0.781 0.781-2.047 0-2.828l-10-10c-0.781-0.781-2.047-0.781-2.828 0s-0.781 2.047 0 2.828l6.586 6.586h-19.172c-1.105 0-2 0.895-2 2s0.895 2 2 2h19.172l-6.586 6.586c-0.39 0.39-0.586 0.902-0.586 1.414s0.195 1.024 0.586 1.414c0.781 0.781 2.047 0.781 2.828 0z"></path>
</symbol>


<!-- Products -->
<symbol id="icon-puntos" viewBox="0 0 133 32">
<path d="M81.515 16c0 8.837-6.843 16-15.285 16s-15.285-7.163-15.285-16c0-8.837 6.843-16 15.285-16s15.285 7.163 15.285 16z"></path>
<path d="M30.571 16c0 8.837-6.843 16-15.285 16s-15.285-7.163-15.285-16c0-8.837 6.843-16 15.285-16s15.285 7.163 15.285 16z"></path>
<path d="M132.459 16c0 8.837-6.843 16-15.285 16s-15.285-7.163-15.285-16c0-8.837 6.843-16 15.285-16s15.285 7.163 15.285 16z"></path>
</symbol>
<symbol id="icon-arrow-right2" viewBox="0 0 32 32">
<path d="M19.414 27.414l10-10c0.781-0.781 0.781-2.047 0-2.828l-10-10c-0.781-0.781-2.047-0.781-2.828 0s-0.781 2.047 0 2.828l6.586 6.586h-19.172c-1.105 0-2 0.895-2 2s0.895 2 2 2h19.172l-6.586 6.586c-0.39 0.39-0.586 0.902-0.586 1.414s0.195 1.024 0.586 1.414c0.781 0.781 2.047 0.781 2.828 0z"></path>
</symbol>

<symbol id="icon-modal-close" viewBox="0 0 32 32">
<path d="M23.733 10.304l-1.504-1.504-5.963 5.963-5.963-5.963-1.504 1.504 5.963 5.963-5.963 5.963 1.504 1.504 5.963-5.963 5.963 5.963 1.504-1.504-5.963-5.963 5.963-5.963z"></path>
</symbol>

  <!-- Footer -->
  
<symbol id="icon-arrow-right" viewBox="0 0 32 32">
<path d="M15.057 7.609l7.057 7.057H6.666a1.333 1.333 0 000 2.666h15.448l-7.057 7.057a1.333 1.333 0 001.886 1.886l9.333-9.333c.239-.242.387-.575.387-.943s-.148-.701-.387-.943l-9.333-9.333a1.333 1.333 0 00-1.886 1.886z"/></symbol><symbol id="icon-arrow-right2" viewBox="0 0 32 32"><path d="M19.414 27.414l10-10c.362-.362.586-.862.586-1.414s-.224-1.052-.586-1.414l-10-10a2 2 0 10-2.829 2.827l.001.001L23.172 14H4a2 2 0 100 4h19.172l-6.586 6.586c-.39.39-.586.902-.586 1.414s.195 1.024.586 1.414c.362.362.862.586 1.414.586s1.052-.224 1.414-.586z"/></symbol><symbol id="icon-facebook" viewBox="0 0 16 32"><path d="M14.143 15.971H10.11v14.865H3.998V15.971H1.092v-5.222h2.906V7.367c0-2.417 1.142-6.204 6.167-6.204l4.527.019v5.072h-3.284c-.538 0-1.297.272-1.297 1.425v3.073h4.567l-.534 5.219z"/></symbol><symbol id="icon-further" viewBox="0 0 19 32"><path fill="none" stroke="var(--color2, #d41443)" stroke-linejoin="round" stroke-linecap="round" stroke-width="6.4" d="M3.2 3.2L16 16 3.2 28.8"/></symbol><symbol id="icon-githab" viewBox="0 0 32 32"><path d="M16 0C7.211 0 0 7.211 0 16c0 7.499 5.262 14.312 12.25 16v-5.293a3.921 3.921 0 01-2.062-.06l.028.007c-.946-.278-1.714-.909-2.285-1.869-.363-.613-1.008-1.28-1.68-1.23l-.165-1.867c1.454-.125 2.71.886 3.456 2.139.333.558.715.885 1.205 1.029.472.141.981.074 1.573-.136.149-1.186.693-1.629 1.104-2.256-4.168-.621-5.829-2.832-6.488-4.576-.874-2.318-.405-5.213 1.139-7.043.03-.035.085-.128.064-.192-.709-2.141.154-3.91.186-4.098.818.24.95-.243 3.552 1.336l.448.27c.189.112.128.048.317.032a13.246 13.246 0 013.349-.469h.01c1.136.014 2.272.176 3.403.483l.146.016c-.013-.003.04-.01.128-.062 3.248-1.968 3.131-1.325 4.003-1.608.032.189.882 1.987.182 4.099-.096.291 2.816 2.957 1.202 7.235-.659 1.744-2.32 3.957-6.486 4.578.534.816 1.176 1.248 1.173 2.928v6.606c6.986-1.688 12.25-8.501 12.25-16 0-8.789-7.211-16-16-16z"/></symbol><symbol id="icon-home" viewBox="0 0 35 32"><path d="M34.253 15.613a1.571 1.571 0 00-.129-2.254l-.002-.002L19.349.432A1.828 1.828 0 0018.165 0c-.467 0-.893.174-1.217.46l.002-.002L2.129 14.047a1.564 1.564 0 00-.071 2.251l.373.387c.613.64 1.611.72 2.224.171l1.107-.992v14.523c0 .893.72 1.613 1.613 1.613h5.773c.891 0 1.613-.72 1.613-1.613v-10.16h7.373v10.16c-.013.891.624 1.613 1.515 1.613h6.123a1.61 1.61 0 001.611-1.613v-14.32l.685.603c.376.331 1.168.064 1.765-.595l.421-.461z"/></symbol><symbol id="icon-menu" viewBox="0 0 46 32"><path fill="none" stroke="var(--color2, #d41443)" stroke-width="2.286" d="M0 2.286h45.714M0 16h45.714M0 29.714h45.714"/></symbol><symbol id="icon-menu-close" viewBox="0 0 32 32"><path fill="none" stroke="var(--color1, #fff)" stroke-width="2" d="M2.52 2l26.96 28M2 29.48L30 2.52"/></symbol><symbol id="icon-quotes" viewBox="0 0 43 32"><path d="M32.014 0c1.928 0 3.75.52 5.464 1.561s3.107 2.537 4.178 4.488c1.029 1.951 1.543 4.25 1.543 6.894s-.643 5.225-1.928 7.74c-.429.91-1.2 2.081-2.315 3.512a63.65 63.65 0 01-3.214 3.707L31.692 32l-2.893-4.813a22.225 22.225 0 005.306-4.646l.03-.037c1.542-1.821 2.314-3.49 2.314-5.008 0-.781-.171-1.41-.514-1.886a8.361 8.361 0 01-5.014 1.626c-1.328 0-2.593-.412-3.793-1.236a8.638 8.638 0 01-2.935-3.078l-.022-.043c-.771-1.258-1.157-2.558-1.157-3.902 0-1.518.45-2.97 1.35-4.358a10.313 10.313 0 013.364-3.356l.044-.025C29.142.414 30.556.002 32.014.002zM8.936 0c1.928 0 3.75.52 5.464 1.561s3.107 2.536 4.178 4.488c1.029 1.951 1.543 4.25 1.543 6.894 0 1.864-.236 3.534-.707 5.008-.472 1.518-1.286 3.1-2.443 4.748-1.114 1.561-2.164 2.862-3.15 3.902-.986 1.084-2.7 2.883-5.143 5.398l-2.893-4.813a22.225 22.225 0 005.306-4.646l.03-.037c1.542-1.821 2.314-3.49 2.314-5.008 0-.781-.172-1.41-.514-1.886a8.361 8.361 0 01-5.014 1.626c-1.328 0-2.593-.412-3.793-1.236a8.638 8.638 0 01-2.935-3.078l-.022-.043C.386 11.62 0 10.32 0 8.976c0-1.518.429-2.97 1.286-4.358A10.313 10.313 0 014.65 1.262l.045-.025C6.065.413 7.479.001 8.937.001z"/></symbol><symbol id="icon-telegram" viewBox="0 0 44 32"><path d="M17.342 21.048l-.674 8.86c.966 0 1.384-.388 1.886-.852l4.526-4.04 9.38 6.414c1.72.894 2.934.422 3.4-1.478L42.016 3.02c.548-2.374-.92-3.302-2.594-2.72L3.228 13.234c-2.47.896-2.434 2.18-.42 2.766l9.252 2.684L33.554 6.132c1.012-.626 1.932-.28 1.176.346l-17.39 14.57z"/>
</symbol>
<symbol id="icon-telegram" viewBox="0 0 44 32">
<path d="M17.343 21.048l-0.675 8.86c0.966 0 1.384-0.387 1.885-0.852l4.527-4.038 9.381 6.412c1.72 0.895 2.933 0.424 3.397-1.477l6.159-26.93c0.546-2.374-0.92-3.302-2.596-2.72l-36.194 12.933c-2.47 0.895-2.433 2.18-0.42 2.762l9.253 2.686 21.494-12.552c1.012-0.625 1.931-0.279 1.175 0.346l-17.386 14.57z"></path>
</symbol>
<symbol id="icon-github" viewBox="0 0 32 32">
<path d="M16 0c-8.788 0-16 7.212-16 16 0 7.499 5.262 14.312 12.25 16v-5.293c-0.692 0.152-1.33 0.156-2.034-0.052-0.946-0.279-1.714-0.909-2.284-1.869-0.364-0.613-1.008-1.278-1.68-1.23l-0.165-1.868c1.453-0.124 2.711 0.886 3.457 2.14 0.332 0.558 0.713 0.884 1.203 1.029 0.473 0.14 0.982 0.072 1.574-0.137 0.149-1.186 0.692-1.63 1.102-2.255v-0.001c-4.167-0.622-5.828-2.832-6.488-4.578-0.874-2.317-0.405-5.212 1.14-7.041 0.030-0.036 0.084-0.129 0.063-0.194-0.708-2.139 0.155-3.909 0.187-4.097 0.817 0.242 0.95-0.243 3.551 1.337l0.449 0.27c0.188 0.112 0.129 0.048 0.317 0.034 1.086-0.295 2.23-0.458 3.358-0.472 1.136 0.015 2.273 0.178 3.404 0.484l0.145 0.015c-0.013-0.002 0.040-0.009 0.127-0.062 3.248-1.968 3.132-1.324 4.003-1.608 0.032 0.188 0.883 1.987 0.182 4.099-0.095 0.291 2.816 2.956 1.203 7.235-0.659 1.746-2.32 3.957-6.487 4.578v0.001c0.534 0.814 1.176 1.247 1.173 2.927v6.608c6.988-1.688 12.25-8.501 12.25-16 0-8.788-7.212-16-16-16v0z"></path>
</symbol>
<symbol id="icon-facebook" viewBox="0 0 16 32">
<path d="M14.143 15.972h-4.034v14.865h-6.112v-14.865h-2.907v-5.224h2.907v-3.381c0-2.418 1.142-6.203 6.166-6.203l4.527 0.019v5.071h-3.285c-0.539 0-1.296 0.271-1.296 1.424v3.075h4.567l-0.534 5.219z"></path>
</symbol>
<symbol id="icon-direction" viewBox="0 0 20 20">
<path d="M12.95 10.707l0.707-0.707-5.657-5.657-1.414 1.414 4.242 4.243-4.242 4.243 1.414 1.414 4.95-4.95z"></path>
</symbol>
<symbol id="icon-close" viewBox="0 0 32 32">
<path d="M3.738 0l26.929 26.929-3.738 3.738-26.929-26.929z"></path>
<path d="M1.156 27.21l26.929-26.929 3.738 3.738-26.929 26.929z"></path>
</symbol>



</defs>
</svg>